<?xml version="1.0" encoding="utf-8"?>
<!-- Generator: Adobe Illustrator 19.2.1, SVG Export Plug-In . SVG Version: 6.00 Build 0)  -->
<svg version="1.1" baseProfile="tiny" id="Capa_1" xmlns="http://www.w3.org/2000/svg" xmlns:xlink="http://www.w3.org/1999/xlink"
	 x="0px" y="0px" viewBox="0 0 256 100" xml:space="preserve">
<g>
	<path fill-rule="evenodd" fill="#8F8F94" d="M72.2,54.4c-1,4.6-3.9,4.6-8.1,4.6c-6.8,0-6.5-2.1-5.1-8.9h21.7
		c2.9-13.6,2-17.4-11-17.4c-12.7,0-15.6,4.9-18,16.1c-2.6,12.1-0.9,15.9,11.1,15.9c9,0,14.8-0.5,16.9-10.3H72.2 M60,45.4
		c1.2-5.5,1.9-6.9,8.4-6.9c6.2,0,7,0.5,5.7,6.9H60z"/>
	<path fill-rule="evenodd" fill="#8F8F94" d="M103.6,38.5c6.5,0,6.9,2.7,5.4,9.4c-1.6,7.4-2.1,11.2-9.8,11.2
		c-6.9,0-5.8-4.1-4.3-11.2C96.5,39.9,98.4,38.5,103.6,38.5 M105.6,64.4h7.6l9.6-44.7h-7.6l-3.8,17.6h-0.3c-0.8-3.8-4.7-4.5-8.5-4.5
		c-10.8,0-13.3,5.9-15.3,15.1c-2.1,9.6-3.3,16.9,8.4,16.9c4.4,0,8.1-1,10.9-5.1h0.2L105.6,64.4z"/>
	<path fill-rule="evenodd" fill="#8F8F94" d="M134.4,33.1h-7.6l-6.7,31.3h7.6L134.4,33.1 M137.3,19.7h-7.6l-1.4,6.4h7.6L137.3,19.7z
		"/>
	<path fill-rule="evenodd" fill="#8F8F94" d="M157.6,52.5c-1.2,5.5-2,6.5-8.2,6.5c-6.7,0-6-2.4-4.3-10.2c1.7-8,2.3-10.3,8.7-10.3
		c5.3,0,6.6,0.8,5.6,5.6h7.6c2.1-9.9-2.6-11.3-11.9-11.3c-12.4,0-15.2,5.1-17.6,16c-2.7,12.6-0.9,16,10.7,16c10.6,0,14.8-2,17-12.3
		H157.6"/>
	<path fill-rule="evenodd" fill="#8F8F94" d="M189.5,32.7c-13.2,0-15.7,3.9-18.3,16c-2.6,12.1-1.7,16,11.4,16
		c13.2,0,15.7-3.9,18.3-16C203.5,36.6,202.6,32.7,189.5,32.7 M188.2,38.5c6.7,0,6.9,1.9,5,10.4c-1.8,8.3-2.7,10.2-9.4,10.2
		c-6.7,0-6.9-1.8-5.1-10.2C180.6,40.4,181.5,38.5,188.2,38.5z"/>
	<path fill-rule="evenodd" fill="#8F8F94" d="M209.7,33.1L203,64.4h7.6l3.8-17.6c1.2-5.5,3-8.3,9.1-8.3c4.1,0,4.8,1.5,4.1,5.5
		l-4.4,20.4h7.6l3.8-17.6c1.2-5.5,3-8.3,9.1-8.3c4.1,0,4.8,1.5,4.1,5.5l-4.4,20.4h7.6l4.5-21.1c1.6-7.7-0.5-10.5-8.6-10.5
		c-4.2,0-8.8,1.2-11.2,5.5h-0.2c0.1-4.5-4.2-5.5-8.2-5.5c-4,0-8.4,0.9-11,4.9h-0.2l1-4.5H209.7"/>
	<polyline fill-rule="evenodd" fill="#AEC7D4" points="39.6,9.4 16.9,24 12.2,16.8 6.6,41.9 32,47 26.6,38.8 34.4,33.8 41.4,44.6 
		46.6,20.4 39.6,9.4 	"/>
	<polyline fill-rule="evenodd" fill="#5384A2" points="40,53.9 14.6,48.8 20,57 12.2,62 5.2,51.2 0,75.4 7,86.4 29.7,71.8 34.4,79 
		40,53.9 	"/>
	<path fill-rule="evenodd" fill="#5384A2" d="M57.7,82.8l-0.1,0.5c-0.4,1.7-1.1,1.9-2.9,1.9c-2.8,0-2.8-0.8-2.2-3.5
		c0.7-3.1,0.9-3.9,3.5-3.9c1.7,0,2.6,0,2.3,1.8l-0.1,0.3h1.5l0.1-0.3c0.6-2.7-1.2-3-3.5-3c-3.5,0-4.4,1.6-5.1,4.7
		c-0.8,3.6-0.8,5.1,3.2,5.1c2.3,0,4.2-0.3,4.8-3.1l0.1-0.5H57.7"/>
	<path fill-rule="evenodd" fill="#5384A2" d="M62.5,81.5c-0.9,4-0.3,4.9,3.2,4.9c3.6,0,4.5-0.9,5.3-4.9c0.9-4.1,0.4-4.9-3.2-4.9
		C64.2,76.6,63.4,77.5,62.5,81.5 M64,81.5c0.7-3.3,1-3.7,3.6-3.7c2.6,0,2.7,0.4,2,3.7c-0.7,3.3-1,3.7-3.6,3.7
		C63.4,85.3,63.3,84.9,64,81.5z"/>
	<path fill-rule="evenodd" fill="#5384A2" d="M77.2,76.7h-1.5l-2.1,9.6h1.5l1.2-5.6c0.5-2.2,1.1-2.9,3.5-2.9c1.6,0,2.3,0.3,1.9,2
		l-1.4,6.5h1.5l1.4-6.4c0.6-2.7-0.4-3.3-2.9-3.3c-1.1,0-2.6,0.1-3.3,1.3h0L77.2,76.7"/>
	<path fill-rule="evenodd" fill="#5384A2" d="M89.2,76.7h-1.5l-2.1,9.6h1.5l1.2-5.6c0.5-2.2,1.1-2.9,3.5-2.9c1.6,0,2.3,0.3,1.9,2
		l-1.4,6.5h1.5l1.4-6.4c0.6-2.7-0.4-3.3-2.9-3.3c-1.1,0-2.5,0.1-3.3,1.3h0L89.2,76.7"/>
	<path fill-rule="evenodd" fill="#5384A2" d="M105.1,83.4l-0.1,0.4c-0.3,1.4-1,1.5-2.9,1.5c-2.6,0-2.8-0.4-2.1-3.4h7l0.2-1
		c0.8-3.5-0.1-4.3-3.2-4.3c-3.5,0-4.5,0.9-5.4,4.9c-0.8,3.7-0.5,4.9,3.3,4.9c2.2,0,4.2-0.1,4.7-2.7l0.1-0.3H105.1 M100.2,80.7
		c0.6-2.2,0.8-2.9,3.5-2.9c2.2,0,2.5,0.2,2,2.9H100.2z"/>
	<path fill-rule="evenodd" fill="#5384A2" d="M116.9,82.8l-0.1,0.5c-0.4,1.7-1.1,1.9-2.9,1.9c-2.8,0-2.8-0.8-2.2-3.5
		c0.7-3.1,0.9-3.9,3.5-3.9c1.7,0,2.6,0,2.3,1.8l-0.1,0.3h1.5l0.1-0.3c0.6-2.7-1.2-3-3.5-3c-3.5,0-4.4,1.6-5.1,4.7
		c-0.8,3.6-0.8,5.1,3.2,5.1c2.3,0,4.2-0.3,4.8-3.1l0.1-0.5H116.9"/>
	<path fill-rule="evenodd" fill="#5384A2" d="M128.2,76.7h-3.7l0.5-2.3h-1.5l-0.5,2.3h-1.3l-0.3,1.2h1.3l-1.2,5.6
		c-0.5,2.2-0.1,2.9,2.2,2.9c2,0,3-0.9,3.4-2.8l0.1-0.7h-1.4l-0.2,0.7c-0.2,0.9-0.3,1.6-1.7,1.6c-1.1,0-1.3-0.2-1.1-1.3l1.3-6.1h3.7
		L128.2,76.7"/>
	<path fill-rule="evenodd" fill="#5384A2" d="M132.6,76.7h-1.5l-2.1,9.6h1.5L132.6,76.7 M133.5,72.6h-1.5l-0.3,1.6h1.4L133.5,72.6z"
		/>
	<path fill-rule="evenodd" fill="#5384A2" d="M138,76.7h-1.5l-2.1,9.6h1.5l1.2-5.6c0.5-2.2,1.1-2.9,3.5-2.9c1.6,0,2.3,0.3,1.9,2
		l-1.4,6.5h1.5l1.4-6.4c0.6-2.7-0.5-3.3-2.9-3.3c-1.1,0-2.6,0.1-3.3,1.3h0L138,76.7"/>
	<path fill-rule="evenodd" fill="#5384A2" d="M150.6,85.3c-2.8,0-2.3-1.4-1.9-3.7c0.5-2.5,0.8-3.7,3.5-3.7c2.6,0,2.6,1.1,2,3.7
		C153.8,83.7,153.4,85.3,150.6,85.3 M156.7,76.7h-1.5l-0.3,1.2l0,0c-0.3-1.2-1.5-1.3-2.8-1.3c-3.3,0-4.2,1.7-4.9,4.9
		c-0.7,3.3-0.4,4.9,2.8,4.9c1.1,0,2.7-0.1,3.4-1.3h0l-0.5,2.2c-0.4,1.9-1.5,2.1-3.2,2.1c-1.5,0-2.4-0.1-2-2h-1.5
		c-0.7,2.8,1,3.1,3.2,3.1c2.3,0,4.4-0.6,4.9-3.1L156.7,76.7z"/>
	<path fill-rule="evenodd" fill="#5384A2" d="M174.1,81.5c-0.6,2.6-0.9,3.7-3.5,3.7c-2.1,0-2.6-0.6-1.9-3.7c0.6-2.7,1-3.7,3.5-3.7
		C174.6,77.8,174.8,78.4,174.1,81.5 M166.2,86.3h1.5l0.2-1.1l0,0c0.3,1,1.5,1.3,2.8,1.3c3.4,0,4.2-1.8,4.8-4.9
		c0.6-3,0.6-4.9-2.7-4.9c-1.1,0-2.7,0.1-3.4,1.3h0l1.1-5.3h-1.5L166.2,86.3z"/>
	<path fill-rule="evenodd" fill="#5384A2" d="M184.7,86.3h1.5l2.1-9.6h-1.5l-1.3,5.9c-0.5,2.3-1.6,2.6-3.7,2.6
		c-1.9,0-1.8-0.8-1.5-2.4l1.3-6.2h-1.5l-1.3,6.2c-0.5,2.5,0.1,3.5,2.7,3.5c1.3,0,2.6-0.2,3.3-1.4h0L184.7,86.3"/>
	<path fill-rule="evenodd" fill="#5384A2" d="M199.3,78.9c0.5-2.2-1.6-2.2-3.3-2.2c-2.6,0-4.2,0.1-4.8,2.8c-0.6,2.7,1.6,2.5,3.6,2.6
		c1.7,0.1,2.6-0.2,2.2,1.6c-0.4,1.7-1.9,1.5-2.8,1.5c-2.2,0-2.7-0.2-2.5-1.1l0.2-0.7h-1.5l-0.2,0.9c-0.5,2.1,1.7,2.3,3.8,2.3
		c2.2,0,4.1-0.1,4.6-2.8c0.7-3.1-1.7-2.7-4.1-2.9c-1.5-0.1-2,0.1-1.6-1.7c0.3-1.2,1.1-1.2,3-1.2c1.5,0,2.3,0,2.1,1l-0.1,0.4h1.5
		L199.3,78.9"/>
	<path fill-rule="evenodd" fill="#5384A2" d="M204.9,76.7h-1.5l-2.1,9.6h1.5L204.9,76.7 M205.7,72.6h-1.5l-0.3,1.6h1.5L205.7,72.6z"
		/>
	<path fill-rule="evenodd" fill="#5384A2" d="M210.2,76.7h-1.5l-2.1,9.6h1.5l1.2-5.6c0.5-2.2,1.1-2.9,3.5-2.9c1.6,0,2.3,0.3,1.9,2
		l-1.4,6.5h1.5l1.4-6.4c0.6-2.7-0.5-3.3-2.9-3.3c-1.1,0-2.5,0.1-3.3,1.3h0L210.2,76.7"/>
	<path fill-rule="evenodd" fill="#5384A2" d="M226.1,83.4l-0.1,0.4c-0.3,1.4-1,1.5-3,1.5c-2.6,0-2.8-0.4-2.1-3.4h7l0.2-1
		c0.8-3.5-0.1-4.3-3.2-4.3c-3.5,0-4.6,0.9-5.4,4.9c-0.8,3.7-0.5,4.9,3.3,4.9c2.2,0,4.2-0.1,4.7-2.7l0.1-0.3H226.1 M221.2,80.7
		c0.6-2.2,0.8-2.9,3.5-2.9c2.2,0,2.5,0.2,2,2.9H221.2z"/>
	<path fill-rule="evenodd" fill="#5384A2" d="M239.8,78.9c0.5-2.2-1.6-2.2-3.3-2.2c-2.6,0-4.2,0.1-4.8,2.8c-0.6,2.7,1.6,2.5,3.7,2.6
		c1.8,0.1,2.6-0.2,2.2,1.6c-0.4,1.7-1.8,1.5-2.8,1.5c-2.2,0-2.7-0.2-2.5-1.1l0.2-0.7h-1.5l-0.2,0.9c-0.5,2.1,1.7,2.3,3.8,2.3
		c2.2,0,4.1-0.1,4.6-2.8c0.7-3.1-1.7-2.7-4.1-2.9c-1.5-0.1-2,0.1-1.6-1.7c0.3-1.2,1.1-1.2,3-1.2c1.5,0,2.3,0,2.1,1l-0.1,0.4h1.5
		L239.8,78.9"/>
	<path fill-rule="evenodd" fill="#5384A2" d="M251.1,78.9c0.5-2.2-1.6-2.2-3.3-2.2c-2.6,0-4.2,0.1-4.8,2.8c-0.6,2.7,1.6,2.5,3.7,2.6
		c1.7,0.1,2.6-0.2,2.2,1.6c-0.4,1.7-1.8,1.5-2.8,1.5c-2.2,0-2.7-0.2-2.5-1.1l0.2-0.7h-1.5l-0.2,0.9c-0.5,2.1,1.7,2.3,3.8,2.3
		c2.2,0,4.1-0.1,4.6-2.8c0.7-3.1-1.7-2.7-4.1-2.9c-1.5-0.1-2,0.1-1.6-1.7c0.3-1.2,1.1-1.2,3-1.2c1.5,0,2.3,0,2.1,1l-0.1,0.4h1.5
		L251.1,78.9"/>
</g>
</svg>
